<?xml version="1.0" standalone="no"?>
<!DOCTYPE svg PUBLIC "-//W3C//DTD SVG 20010904//EN"
 "http://www.w3.org/TR/2001/REC-SVG-20010904/DTD/svg10.dtd">
<svg version="1.0" xmlns="http://www.w3.org/2000/svg"
 width="128" height="128" viewBox="0 0 1908.000000 1324.000000"
 preserveAspectRatio="xMidYMid meet">

<g transform="translate(0.000000,1324.000000) scale(0.100000,-0.100000)"
fill="#d12013" stroke="none">
<path d="M10705 13113 c-111 -4 -340 -25 -385 -34 -25 -5 -57 -12 -72 -14 -39
-6 -231 -74 -242 -86 -6 -5 -16 -9 -23 -9 -8 0 -24 -9 -36 -21 -12 -11 -30
-18 -39 -15 -10 2 -16 0 -12 -5 3 -5 -2 -9 -11 -9 -8 0 -23 -4 -33 -9 -9 -5
-42 -21 -72 -36 -133 -67 -267 -169 -410 -314 -121 -122 -172 -184 -224 -269
-75 -124 -166 -320 -166 -359 0 -11 -4 -23 -8 -28 -17 -21 -32 -85 -26 -112 8
-39 6 -75 -6 -87 -13 -13 -13 -29 0 -21 6 3 10 -1 10 -10 0 -9 -4 -13 -10 -10
-11 7 -13 -3 -10 -53 1 -18 -5 -48 -13 -65 -11 -22 -15 -60 -14 -122 2 -86 3
-90 24 -87 25 4 35 -8 23 -28 -7 -12 -12 -12 -22 -2 -6 6 -15 12 -19 12 -12 0
-23 -273 -24 -652 0 -214 2 -388 5 -388 3 0 5 -18 5 -40 0 -22 -3 -40 -8 -40
-4 0 -6 -46 -3 -102 7 -123 8 -132 25 -152 7 -8 10 -19 7 -25 -8 -12 22 -197
37 -233 6 -15 20 -30 32 -33 18 -7 19 -7 2 -12 -11 -3 -25 3 -33 14 -12 16
-13 13 -11 -29 1 -27 3 -48 5 -48 1 0 7 10 12 23 8 20 9 19 9 -10 1 -22 6 -33
16 -33 22 0 18 -21 -5 -27 -22 -6 -22 -23 0 -83 23 -60 112 -230 121 -230 5 0
9 -5 9 -11 0 -45 277 -329 403 -413 86 -57 227 -127 300 -147 23 -7 47 -16 52
-20 6 -4 28 -10 50 -13 22 -4 73 -16 113 -27 54 -15 110 -21 215 -23 285 -6
469 35 715 158 185 93 281 174 391 327 49 70 171 301 171 326 0 10 4 23 9 28
6 6 14 28 20 50 67 270 63 185 72 1515 2 307 2 306 -56 425 -29 59 -112 158
-126 149 -5 -3 -23 6 -39 20 -38 31 -81 40 -174 34 -58 -4 -88 -12 -150 -43
-83 -41 -160 -114 -149 -142 4 -9 -1 -21 -9 -27 -32 -23 -47 -165 -48 -426 0
-135 -2 -438 -4 -675 -3 -396 -5 -438 -25 -533 -12 -57 -26 -111 -31 -120 -5
-9 -17 -34 -26 -55 -20 -46 -124 -155 -177 -187 -52 -31 -165 -59 -267 -66
-91 -7 -226 13 -284 42 -16 8 -34 14 -39 14 -17 0 -110 61 -150 99 -47 44
-137 171 -155 220 -73 196 -81 281 -82 862 -1 434 -6 559 -26 559 -13 0 -29
53 -21 67 2 5 1 17 -3 28 -7 19 6 64 23 76 4 3 -2 16 -13 29 -23 27 -25 41 -8
58 10 10 10 15 2 20 -7 4 -12 38 -11 88 0 74 2 84 27 113 24 26 28 39 26 81
-2 33 2 51 11 54 7 3 13 17 13 31 0 15 7 34 16 43 15 15 16 14 10 -14 -5 -24
-3 -31 8 -31 16 0 39 45 36 68 -4 24 0 43 6 36 3 -3 22 26 42 65 51 99 136
174 277 243 110 54 302 127 382 145 80 18 458 30 969 30 593 0 780 -10 898
-47 45 -14 86 -29 91 -33 6 -4 23 -10 40 -14 44 -11 159 -90 254 -176 69 -61
127 -130 209 -246 43 -61 92 -172 118 -268 14 -50 32 -118 41 -151 14 -49 17
-110 16 -325 0 -449 -6 -754 -14 -782 -5 -18 -4 -28 3 -28 6 0 7 -8 3 -17 -21
-55 -25 -292 -6 -353 16 -49 57 -120 69 -120 4 0 32 -23 62 -50 75 -67 102
-72 374 -65 311 8 1579 7 1599 -1 19 -7 18 28 18 -534 1 -279 -3 -373 -15
-441 -28 -153 -116 -322 -198 -381 -24 -17 -45 -34 -48 -38 -13 -18 -155 -82
-226 -102 -92 -24 -106 -25 -1484 -33 -476 -3 -954 -7 -1063 -10 -197 -4 -198
-4 -237 -32 -22 -15 -40 -34 -40 -40 0 -7 -3 -12 -7 -12 -23 4 -33 -3 -33 -21
0 -13 -5 -18 -15 -14 -20 8 -19 -6 3 -23 15 -13 13 -14 -21 -9 -35 5 -38 3
-44 -25 -4 -20 -10 -28 -19 -25 -10 4 -14 -3 -14 -24 0 -17 -9 -39 -19 -49
-17 -17 -21 -44 -30 -208 -6 -103 -11 -336 -11 -517 0 -266 3 -340 16 -389 52
-201 203 -326 384 -318 112 5 261 98 313 196 44 83 47 106 47 433 0 299 1 313
20 332 23 23 69 25 254 10 65 -6 530 -10 1035 -11 998 -1 987 -1 1173 57 148
46 250 102 362 196 6 4 32 25 59 45 26 19 47 39 47 43 0 4 24 31 54 60 38 37
58 65 67 97 8 28 21 50 38 61 14 9 40 32 57 50 27 30 31 40 26 74 -5 39 -5 39
24 33 22 -5 26 -4 14 4 -12 9 -10 11 10 9 17 -2 28 4 35 20 5 12 14 21 20 19
5 -2 14 1 20 7 20 21 73 111 95 161 13 28 26 57 30 65 13 26 60 187 65 222 12
75 26 785 23 1156 l-3 397 -28 56 c-28 59 -117 159 -139 159 -7 0 -18 8 -25
19 -8 12 -37 24 -84 35 -63 14 -174 16 -928 16 -724 0 -860 2 -877 14 -18 14
-19 35 -25 543 -5 494 -7 535 -27 630 -71 328 -201 593 -403 823 -94 106 -119
132 -183 184 -28 23 -66 54 -83 70 -80 71 -327 216 -368 216 -8 0 -15 4 -15 8
0 5 -19 16 -42 26 -24 9 -50 21 -58 25 -9 5 -54 20 -100 34 -242 74 -294 78
-900 83 -289 2 -606 5 -705 7 -99 1 -207 1 -240 0z m-990 -1172 c3 -5 1 -12
-5 -16 -5 -3 -10 1 -10 9 0 18 6 21 15 7z m-18 -93 c-3 -7 -5 -2 -5 12 0 14 2
19 5 13 2 -7 2 -19 0 -25z m-82 -198 c3 -5 1 -10 -4 -10 -6 0 -11 5 -11 10 0
6 2 10 4 10 3 0 8 -4 11 -10z m3465 -120 c0 -5 -4 -10 -10 -10 -5 0 -10 5 -10
10 0 6 5 10 10 10 6 0 10 -4 10 -10z m-1659 -42 c10 -18 9 -20 -6 -15 -9 4
-19 7 -21 7 -2 0 -4 7 -4 15 0 22 18 18 31 -7z m1662 -2 c4 -10 1 -13 -9 -9
-15 6 -19 23 -5 23 5 0 11 -7 14 -14z m-4143 -116 c0 -5 -4 -10 -10 -10 -5 0
-10 5 -10 10 0 6 5 10 10 10 6 0 10 -4 10 -10z m17 -192 c-2 -13 -4 -3 -4 22
0 25 2 35 4 23 2 -13 2 -33 0 -45z m-17 -123 c0 -14 -2 -25 -4 -25 -2 0 -6 11
-8 25 -3 14 -1 25 3 25 5 0 9 -11 9 -25z m6785 -2795 c-10 -11 -20 -18 -23
-15 -7 6 18 35 31 35 5 0 2 -9 -8 -20z m45 -10 c0 -5 -4 -10 -10 -10 -5 0 -10
5 -10 10 0 6 5 10 10 10 6 0 10 -4 10 -10z m-170 -116 c0 -3 -6 -12 -14 -19
-17 -17 -30 -7 -15 12 12 13 29 18 29 7z m-3790 -184 c0 -5 -7 -10 -16 -10 -8
0 -12 5 -9 10 3 6 10 10 16 10 5 0 9 -4 9 -10z m3680 -5 c0 -9 -9 -15 -21 -15
-18 0 -19 2 -9 15 7 8 16 15 21 15 5 0 9 -7 9 -15z m-3724 -44 c11 9 14 8 14
-5 0 -10 -9 -16 -25 -16 -19 0 -23 4 -18 17 4 11 8 13 11 5 3 -10 7 -10 18 -1z"/>
<path d="M3713 11591 c-108 -28 -219 -122 -269 -227 -21 -45 -24 -59 -15 -82
l11 -27 -5 29 c-4 19 0 35 12 48 10 11 17 22 16 24 -7 12 12 34 24 29 11 -4
14 0 11 12 -4 13 8 26 39 45 23 15 43 25 43 23 0 -2 -9 -20 -20 -40 -16 -28
-17 -37 -6 -41 14 -5 14 -62 1 -84 -4 -7 -9 -40 -11 -73 -2 -37 -9 -66 -17
-72 -21 -15 -27 -42 -28 -123 -1 -50 -5 -72 -13 -69 -6 2 -13 12 -15 22 -1 10
-12 32 -22 49 l-19 31 -1 -35 c-2 -33 -2 -32 -9 10 l-7 45 -3 -60 c-3 -59 -3
-59 -10 -20 -5 22 -7 -597 -5 -1375 2 -1026 6 -1431 15 -1475 6 -33 13 -118
15 -190 4 -142 6 -160 22 -190 6 -11 11 -40 11 -65 1 -57 35 -190 75 -295 27
-69 110 -221 166 -303 61 -89 282 -323 381 -404 217 -177 491 -301 760 -343
52 -8 118 -19 145 -24 28 -6 136 -8 240 -6 341 6 634 77 835 200 89 55 435
382 444 420 4 14 11 25 17 25 14 0 74 64 112 119 16 24 38 52 49 63 10 10 18
25 18 33 0 9 6 12 16 8 9 -3 19 -1 23 4 3 6 24 31 46 57 34 41 39 51 36 91 -2
30 2 45 10 45 8 0 10 -12 5 -40 -4 -23 -2 -40 3 -40 12 0 181 169 181 181 0 4
9 11 21 14 25 8 69 45 69 57 0 16 44 68 57 68 7 0 13 3 13 8 0 4 33 41 73 83
41 42 76 83 80 92 3 9 15 17 26 17 11 0 22 4 26 10 3 5 11 8 18 6 7 -1 9 -1 5
1 -14 8 -9 23 7 23 8 0 15 4 15 10 0 11 111 126 150 155 53 39 175 160 189
187 7 15 28 37 46 50 50 35 200 181 208 201 3 9 13 17 22 17 8 0 15 5 15 10 0
6 7 10 15 10 9 0 33 12 55 26 29 19 37 30 30 39 -14 17 25 52 42 37 9 -7 20
-7 35 2 29 15 73 74 73 97 0 10 5 21 10 24 6 3 10 16 11 28 0 12 3 16 6 10 6
-16 43 -17 43 -2 0 5 -4 7 -10 4 -9 -5 -8 15 5 78 3 14 -2 18 -18 17 -35 -3
-38 -1 -27 20 6 11 7 20 2 20 -4 0 -8 8 -9 18 -1 9 -4 27 -8 39 -6 19 -4 22
21 20 25 -2 29 -7 32 -35 4 -45 22 -40 22 6 0 46 -18 112 -30 112 -6 0 -9 3
-8 8 3 15 -22 62 -33 62 -7 0 -10 3 -6 6 12 13 -53 76 -84 81 -22 3 -79 43
-63 43 5 1 -13 10 -41 21 -65 26 -163 21 -238 -14 -68 -31 -170 -118 -191
-161 -9 -19 -39 -57 -66 -84 -28 -28 -50 -55 -50 -61 0 -6 -6 -11 -14 -11 -8
0 -38 -22 -67 -50 -30 -27 -58 -50 -63 -50 -4 0 -6 -7 -3 -14 4 -11 1 -13 -10
-9 -11 4 -14 2 -9 -5 4 -7 2 -12 -3 -12 -6 0 -23 -14 -38 -32 -22 -25 -126
-128 -229 -226 -8 -7 -14 -18 -14 -23 0 -6 -4 -8 -9 -5 -4 3 -21 -11 -37 -31
-28 -34 -291 -299 -303 -305 -3 -2 -18 -17 -32 -35 -15 -18 -30 -29 -33 -26
-3 4 -6 1 -6 -5 0 -13 -107 -122 -120 -122 -5 0 -16 -12 -24 -27 -8 -16 -15
-24 -16 -20 0 11 -70 -63 -70 -75 0 -5 -4 -7 -8 -4 -5 3 -19 -9 -33 -26 -37
-48 -466 -476 -539 -539 -124 -106 -159 -126 -311 -173 -157 -48 -222 -59
-379 -59 -104 0 -158 5 -235 22 -55 13 -104 26 -110 30 -5 4 -30 13 -55 20
-213 61 -452 291 -538 516 -72 190 -67 75 -67 1705 0 806 4 1535 8 1620 9 175
-1 277 -34 343 -33 66 -99 147 -125 153 -13 3 -21 10 -19 15 3 4 -9 12 -27 17
-18 5 -32 15 -30 21 2 9 -5 10 -19 6 -13 -5 -19 -3 -15 3 3 5 -2 13 -12 17
-27 11 -183 15 -219 6z m-58 -91 c-3 -5 -12 -10 -18 -10 -7 0 -6 4 3 10 19 12
23 12 15 0z m-228 -572 c-3 -7 -5 -2 -5 12 0 14 2 19 5 13 2 -7 2 -19 0 -25z
m73 -32 c0 -3 -4 -8 -10 -11 -5 -3 -10 -1 -10 4 0 6 5 11 10 11 6 0 10 -2 10
-4z m4685 -1676 c3 -5 -1 -10 -9 -10 -9 0 -16 5 -16 10 0 6 4 10 9 10 6 0 13
-4 16 -10z m105 -111 c0 -14 -56 14 -73 37 -31 42 -8 46 34 7 21 -20 39 -40
39 -44z m50 -59 c0 -5 -4 -10 -10 -10 -5 0 -10 5 -10 10 0 6 5 10 10 10 6 0
10 -4 10 -10z m5 -29 c3 -5 1 -12 -5 -16 -5 -3 -10 1 -10 9 0 18 6 21 15 7z
m-559 -729 c-18 -16 -18 -16 -6 6 6 13 14 21 18 18 3 -4 -2 -14 -12 -24z"/>
<path d="M9596 11512 c-2 -4 -1 -14 5 -22 7 -12 9 -10 9 8 0 23 -5 28 -14 14z"/>
<path d="M3516 11353 c-6 -14 -5 -15 5 -6 7 7 10 15 7 18 -3 3 -9 -2 -12 -12z"/>
<path d="M3412 11140 c0 -19 2 -27 5 -17 2 9 2 25 0 35 -3 9 -5 1 -5 -18z"/>
<path d="M2190 4767 c-166 -37 -240 -129 -260 -320 -5 -51 -10 -264 -11 -474
-1 -281 -5 -385 -13 -392 -13 -11 -118 36 -139 62 -7 8 -34 20 -62 26 -27 7
-54 16 -60 21 -21 17 -201 34 -360 33 -117 0 -313 -42 -430 -92 -166 -71 -336
-184 -410 -273 -15 -18 -44 -51 -64 -73 -40 -44 -118 -154 -128 -182 -3 -10
-12 -25 -18 -33 -16 -19 -86 -185 -114 -270 -67 -206 -69 -527 -5 -749 83
-290 310 -601 549 -752 121 -77 292 -140 475 -175 109 -21 177 -22 345 -8 137
12 162 18 280 61 154 56 182 57 367 19 153 -31 173 -32 263 -5 123 36 134 43
162 106 15 31 26 62 25 68 -7 60 -7 117 -1 121 9 5 9 314 0 314 -3 0 -6 23 -7
50 0 28 3 50 8 50 4 0 8 9 8 20 0 11 -4 20 -9 20 -5 0 -11 7 -14 14 -4 11 -1
13 10 9 14 -5 15 -1 8 33 -9 52 -12 105 -4 109 9 6 9 115 0 115 -5 0 -12 -6
-14 -12 -3 -7 -6 -3 -6 8 -1 12 6 24 14 28 8 3 15 12 15 20 0 8 -7 21 -15 30
-18 17 -20 43 -4 48 9 3 9 9 1 24 -6 12 -8 31 -5 43 3 13 -1 29 -12 41 -10 12
-13 20 -7 20 7 0 12 11 12 25 0 14 -5 25 -10 25 -6 0 -5 8 2 20 11 17 10 22
-1 29 -8 5 -11 16 -8 26 4 9 11 13 17 10 7 -4 8 7 4 34 -4 25 -3 41 4 41 20 0
31 154 32 465 0 343 10 1164 14 1236 4 58 -21 185 -42 218 -27 41 -64 81 -76
81 -7 0 -26 13 -44 30 -59 54 -169 78 -262 57z m-660 -1699 c25 -6 56 -12 69
-14 13 -1 27 -7 30 -11 12 -18 118 -73 126 -65 5 4 5 1 1 -5 -4 -7 -3 -13 2
-13 11 0 107 -95 148 -146 85 -108 130 -389 85 -529 -5 -16 -19 -61 -31 -100
-11 -38 -25 -79 -29 -90 -24 -55 -35 -91 -33 -104 2 -7 -1 -10 -7 -6 -6 3 -9
0 -6 -7 3 -8 -14 -22 -46 -37 -30 -14 -48 -29 -45 -36 3 -8 -7 -15 -27 -19
-17 -4 -61 -18 -97 -33 -90 -36 -177 -52 -300 -57 -91 -3 -114 -1 -173 20
-179 63 -311 205 -408 439 -50 121 -38 343 29 533 19 55 105 144 164 171 26
11 49 25 52 30 3 5 14 7 25 4 10 -2 51 7 92 20 236 78 263 82 379 55z m524
-894 c6 -24 2 -44 -8 -33 -9 11 -15 59 -7 59 5 0 12 -12 15 -26z m-1814 -226
c0 -5 -7 -3 -15 6 -8 8 -15 18 -15 22 0 3 7 1 15 -6 8 -7 15 -17 15 -22z m55
-123 c15 -24 23 -50 19 -56 -4 -8 -3 -9 4 -5 7 4 19 -7 29 -31 18 -37 26 -50
50 -77 10 -11 9 -15 -2 -20 -9 -3 -20 5 -29 22 -8 15 -23 36 -34 48 -10 11
-28 45 -40 75 -11 29 -23 62 -27 72 -13 33 4 17 30 -28z m165 -278 c0 -5 -4
-5 -10 -2 -5 3 -10 14 -10 23 0 15 2 15 10 2 5 -8 10 -19 10 -23z m2090 -191
c0 -3 -4 -8 -10 -11 -5 -3 -10 -1 -10 4 0 6 5 11 10 11 6 0 10 -2 10 -4z
m-1760 -56 c0 -5 -4 -10 -10 -10 -5 0 -10 5 -10 10 0 6 5 10 10 10 6 0 10 -4
10 -10z"/>
<path d="M13810 4752 c-70 -23 -102 -43 -95 -60 3 -7 0 -10 -5 -7 -19 12 -67
-34 -98 -92 -41 -78 -49 -174 -39 -463 9 -254 3 -470 -14 -501 -9 -18 -17 -20
-52 -15 -23 4 -52 14 -64 22 -12 7 -27 14 -33 14 -6 0 -23 11 -37 24 -39 36
-106 48 -261 48 -166 -1 -313 -22 -429 -62 -91 -32 -226 -96 -231 -111 -2 -5
-8 -9 -14 -9 -15 0 -38 -27 -30 -35 4 -5 1 -5 -6 -1 -13 8 -112 -58 -112 -75
0 -5 -5 -9 -12 -9 -17 0 -113 -102 -133 -141 -10 -19 -24 -38 -31 -42 -8 -4
-14 -15 -14 -25 0 -16 -10 -28 -82 -99 -21 -20 -38 -40 -38 -46 0 -5 -8 -21
-19 -35 -40 -57 -94 -250 -112 -398 -16 -132 -7 -420 16 -529 47 -224 115
-356 282 -548 92 -107 184 -188 285 -252 40 -26 84 -55 98 -64 69 -46 225 -96
345 -111 44 -5 115 -14 159 -20 43 -5 83 -7 88 -4 5 3 58 10 118 15 84 7 132
17 212 45 139 49 263 61 327 31 31 -14 71 -21 136 -24 84 -4 100 -1 167 25 92
35 145 81 153 131 4 20 13 69 21 109 13 58 17 186 21 630 8 765 3 2367 -7
2422 -15 83 -53 148 -120 208 -69 62 -235 88 -340 54z m-154 -152 c-5 -44 -14
-48 -14 -6 0 20 4 36 9 36 5 0 7 -14 5 -30z m24 -49 c0 -5 -6 -14 -14 -20 -12
-10 -13 -8 -9 8 5 21 23 30 23 12z m-397 -1492 c141 -38 269 -149 341 -296 47
-95 60 -177 53 -337 -6 -143 -27 -228 -88 -347 -34 -68 -135 -177 -189 -204
-140 -69 -316 -94 -426 -60 -27 8 -60 15 -73 15 -13 0 -21 3 -18 6 4 4 -13 19
-36 35 -48 32 -227 216 -227 233 0 4 -12 25 -27 49 -15 23 -28 51 -30 61 -2
11 -7 24 -12 30 -32 43 -60 328 -34 344 6 4 16 26 22 48 6 23 25 72 43 110 18
38 33 76 34 85 2 22 88 104 141 136 51 29 151 67 236 87 123 30 191 31 290 5z
m382 -219 c3 -5 1 -10 -4 -10 -6 0 -11 5 -11 10 0 6 2 10 4 10 3 0 8 -4 11
-10z"/>
<path d="M8860 4731 c-40 -13 -90 -41 -90 -51 0 -6 -4 -9 -8 -7 -9 2 -72 -48
-72 -59 0 -3 7 -1 15 6 11 9 15 9 15 1 0 -6 -7 -14 -15 -17 -8 -4 -15 -15 -15
-25 0 -10 -4 -19 -10 -19 -5 0 -10 -10 -10 -22 0 -13 -7 -32 -16 -43 -13 -17
-16 -18 -24 -5 -7 10 -8 4 -4 -20 4 -19 13 -45 21 -58 19 -31 10 -55 -19 -48
-13 3 -17 3 -10 0 6 -3 12 -10 12 -15 0 -6 -5 -7 -11 -3 -7 4 -10 -7 -8 -34 2
-23 0 -44 -4 -48 -13 -13 -8 -46 6 -38 9 5 9 4 0 -6 -9 -10 -7 -23 12 -59 104
-204 398 -264 563 -116 94 84 148 196 136 276 -7 43 -20 51 -27 17 -2 -13 -5
-6 -5 17 -1 26 1 35 7 26 5 -7 14 -10 21 -6 14 9 5 76 -16 118 -8 15 -12 27
-9 27 10 0 -35 62 -79 108 -22 23 -48 42 -59 42 -10 0 -16 4 -13 9 3 5 -1 12
-10 15 -10 4 -13 2 -9 -7 4 -6 0 -5 -7 4 -34 42 -178 64 -258 40z m394 -257
c4 -9 4 -19 2 -21 -8 -8 -26 8 -26 23 0 19 16 18 24 -2z m36 -55 c0 -11 -4
-17 -10 -14 -5 3 -10 13 -10 21 0 8 5 14 10 14 6 0 10 -9 10 -21z m-10 -99 c0
-5 -5 -10 -11 -10 -5 0 -7 5 -4 10 3 6 8 10 11 10 2 0 4 -4 4 -10z m3 -36 c8
-9 -9 -40 -26 -47 -10 -4 -12 3 -9 24 4 27 20 37 35 23z m-633 -37 c0 -5 -4
-5 -10 -2 -5 3 -10 14 -10 23 0 15 2 15 10 2 5 -8 10 -19 10 -23z m10 -47 c0
-5 -4 -10 -10 -10 -5 0 -10 5 -10 10 0 6 5 10 10 10 6 0 10 -4 10 -10z"/>
<path d="M6955 3724 c-53 -5 -131 -22 -231 -49 -221 -62 -351 -129 -474 -244
-30 -28 -58 -51 -62 -51 -4 0 -8 -4 -8 -10 0 -5 -17 -26 -37 -47 -61 -60 -102
-115 -96 -130 4 -9 0 -11 -11 -7 -11 4 -16 1 -16 -11 0 -9 -18 -38 -40 -64
-22 -26 -40 -54 -40 -63 0 -9 -7 -22 -16 -29 -16 -13 -32 -47 -39 -80 -2 -9
-8 -25 -13 -35 -51 -96 -92 -306 -92 -474 0 -112 20 -286 45 -384 14 -52 49
-131 114 -251 48 -88 184 -259 291 -365 62 -61 212 -154 278 -172 23 -7 42
-16 42 -20 0 -4 16 -10 35 -14 19 -3 35 -10 35 -14 0 -5 8 -8 18 -8 25 1 45
-5 61 -20 10 -10 16 -11 21 -2 6 9 9 9 15 1 3 -7 15 -9 26 -6 12 4 21 1 25 -9
3 -8 12 -12 20 -9 7 3 20 -2 29 -10 8 -9 44 -19 82 -23 80 -8 268 0 303 14 14
5 51 17 83 26 31 10 74 24 95 33 20 9 40 16 45 15 4 -1 7 2 7 8 0 5 9 10 19
10 11 0 32 11 48 24 15 13 45 29 65 37 57 20 63 8 61 -119 -2 -100 -4 -108
-31 -141 -31 -39 -45 -48 -174 -115 -157 -83 -211 -98 -355 -97 -69 1 -131 5
-137 10 -6 5 -31 12 -56 16 -130 19 -260 81 -345 163 -11 11 -36 30 -56 44
-20 13 -54 41 -75 61 -28 27 -54 40 -93 48 -89 18 -201 -5 -201 -42 0 -10 -10
-25 -22 -33 -17 -12 -20 -18 -10 -28 15 -15 16 -48 1 -48 -6 0 -9 -9 -6 -20 3
-10 -1 -24 -8 -30 -7 -6 -16 -22 -19 -35 -4 -14 -13 -25 -20 -25 -22 0 -28
-31 -9 -52 13 -14 14 -21 5 -30 -9 -9 -12 -8 -12 4 0 28 -16 29 -46 2 -27 -23
-28 -26 -11 -38 9 -7 15 -20 12 -28 -3 -7 3 -23 14 -35 21 -22 18 -35 -5 -26
-17 6 -18 -1 -3 -29 8 -15 8 -19 -1 -13 -6 4 -15 18 -20 31 -5 13 -14 24 -20
24 -17 0 25 -70 84 -142 60 -73 178 -178 261 -233 71 -47 187 -105 197 -99 4
3 8 1 8 -3 0 -20 208 -90 307 -103 37 -5 91 -14 118 -20 122 -26 468 1 617 50
86 28 230 111 328 189 25 20 64 49 87 65 51 34 147 148 180 211 29 58 29 63
-3 57 -22 -4 -25 -2 -21 22 1 15 7 26 13 25 32 -7 44 -13 44 -23 0 -21 20 19
20 41 0 12 5 23 11 25 9 3 9 9 1 25 -9 15 -8 25 3 39 8 11 15 31 15 46 0 15 6
31 13 35 6 4 13 15 14 23 4 43 24 124 33 134 8 11 17 147 25 401 3 98 11 203
20 277 3 20 1 40 -5 43 -6 4 -5 13 3 25 9 15 9 24 0 38 -7 12 -8 24 -1 36 5
10 7 29 3 44 -4 15 -9 50 -11 77 -2 28 -6 60 -9 72 -3 12 -1 24 5 28 5 3 6 15
2 26 -4 11 -5 46 -2 78 3 33 2 72 -2 87 -4 15 -4 32 0 38 3 6 7 169 8 363 1
193 4 356 8 361 7 12 -3 44 -18 55 -8 5 -8 9 0 15 15 10 24 100 11 105 -7 2
-7 8 -1 18 24 38 8 243 -23 280 -7 9 -11 18 -8 21 3 3 -9 18 -27 32 -18 15
-41 34 -51 42 -26 21 -62 34 -142 49 -59 11 -82 11 -148 0 -83 -14 -103 -24
-153 -73 -63 -60 -110 -68 -170 -27 -20 14 -55 30 -78 37 -23 6 -48 17 -56 23
-8 7 -51 23 -95 35 -44 12 -91 26 -105 30 -28 9 -234 19 -295 14z m370 -699
c91 -45 93 -47 143 -97 20 -21 41 -38 46 -38 22 0 94 -100 129 -180 76 -174
71 -386 -14 -575 -27 -59 -113 -167 -163 -204 -139 -103 -347 -152 -512 -121
-112 21 -191 72 -289 187 -122 143 -181 275 -191 427 -5 70 -2 101 21 190 14
58 23 111 19 118 -4 6 -1 16 7 22 8 6 27 36 42 66 39 75 44 81 105 123 53 36
196 87 301 107 30 6 56 12 59 14 2 3 52 4 111 3 102 -2 109 -4 186 -42z
m-1425 -1015 c0 -5 -4 -10 -10 -10 -5 0 -10 5 -10 10 0 6 5 10 10 10 6 0 10
-4 10 -10z m170 -1410 c9 -16 8 -18 -5 -14 -8 4 -15 12 -15 20 0 20 7 17 20
-6z m480 -340 c0 -5 -2 -10 -4 -10 -3 0 -8 5 -11 10 -3 6 -1 10 4 10 6 0 11
-4 11 -10z"/>
<path d="M6520 2739 c0 -5 5 -7 10 -4 6 3 10 8 10 11 0 2 -4 4 -10 4 -5 0 -10
-5 -10 -11z"/>
<path d="M15720 3724 c-187 -20 -270 -44 -445 -129 -136 -65 -228 -127 -289
-195 -20 -22 -36 -38 -36 -35 0 3 -14 -10 -31 -28 -58 -60 -99 -114 -99 -131
0 -9 -7 -19 -15 -22 -8 -4 -15 -12 -15 -20 0 -8 -4 -14 -10 -14 -5 0 -10 -12
-10 -26 0 -14 -7 -32 -15 -40 -8 -9 -15 -28 -15 -44 0 -16 -6 -31 -12 -33 -10
-4 -10 -6 0 -6 9 -1 10 -12 6 -41 -5 -30 -3 -40 7 -40 10 -1 9 -5 -4 -14 -12
-9 -14 -16 -8 -21 16 -9 13 -32 -4 -39 -8 -3 -14 -2 -14 2 1 4 1 14 0 22 -1
11 -3 12 -13 1 -11 -10 -7 -17 16 -35 18 -15 24 -26 17 -30 -6 -4 -11 -18 -11
-32 0 -13 -4 -24 -10 -24 -5 0 -10 -12 -10 -27 0 -16 -4 -35 -9 -43 -15 -22
-1 -34 16 -13 13 16 14 14 10 -24 -3 -26 0 -49 9 -62 18 -26 17 -179 -2 -236
-10 -30 -10 -41 -1 -47 6 -4 8 -10 4 -15 -5 -4 -12 -1 -17 6 -5 9 -14 11 -26
6 -17 -7 -17 -8 -2 -12 23 -6 11 -32 -19 -44 -20 -7 -23 -12 -14 -23 9 -11 9
-15 -1 -19 -10 -4 -10 -6 0 -6 6 -1 12 -12 12 -26 0 -14 8 -29 20 -35 15 -8
20 -21 20 -55 0 -25 5 -45 10 -45 6 0 10 -8 10 -18 0 -10 6 -24 13 -31 9 -11
9 -14 0 -18 -9 -3 -5 -16 12 -41 29 -43 30 -46 10 -66 -9 -9 -11 -17 -5 -21 5
-3 10 -1 10 5 0 6 5 8 11 4 8 -5 6 -10 -5 -16 -20 -11 -21 -47 0 -55 11 -4 13
-13 9 -33 -4 -19 -2 -31 8 -37 8 -4 19 -24 26 -43 29 -89 268 -314 421 -398
107 -58 316 -128 428 -143 235 -32 231 -32 430 -5 193 26 422 119 557 227 28
22 55 43 61 47 18 12 95 114 115 153 25 50 25 95 1 101 -14 4 -19 0 -19 -16 0
-50 -4 -73 -17 -91 -12 -17 -14 -16 -18 13 -6 43 29 133 50 130 13 -2 16 3 14
22 -3 37 -23 80 -36 80 -11 0 -36 20 -112 89 -16 15 -43 31 -60 35 -16 4 -37
15 -46 23 -26 23 -121 12 -248 -30 -286 -93 -354 -108 -481 -105 -68 1 -114 9
-211 38 -21 6 -40 15 -43 20 -4 6 -17 10 -31 10 -14 0 -27 6 -30 14 -3 8 -19
20 -35 26 -16 7 -29 16 -29 20 0 5 -17 19 -37 31 -45 27 -74 55 -66 63 3 3 -2
17 -11 30 -10 17 -16 47 -16 86 0 84 5 86 235 71 204 -14 611 -15 697 -3 31 5
63 5 72 0 8 -4 102 -10 210 -13 205 -5 331 7 352 34 6 8 16 11 22 7 6 -3 24 6
41 20 27 22 31 32 31 74 0 29 6 52 14 60 12 9 13 18 5 38 -8 21 -8 24 2 15 6
-6 18 -9 25 -6 8 3 14 0 14 -6 0 -6 -4 -11 -10 -11 -5 0 -10 -14 -10 -31 0
-27 2 -29 15 -15 8 8 15 26 15 40 0 14 5 28 10 31 14 9 12 35 -4 67 -10 18
-11 29 -3 37 8 8 7 18 -4 37 -7 15 -12 38 -10 52 2 19 -1 23 -12 19 -13 -5
-15 2 -11 39 3 31 -1 50 -11 60 -8 8 -12 21 -8 29 6 16 -1 37 -49 145 -59 136
-105 215 -199 338 -67 88 -164 189 -211 220 -14 9 -57 38 -94 63 -120 81 -255
136 -409 168 -54 11 -278 21 -335 15z m665 -195 c-7 -10 -35 -1 -35 11 0 5 9
6 20 3 11 -3 17 -9 15 -14z m45 -29 c26 -22 23 -24 -15 -10 -14 5 -23 14 -20
20 8 13 8 13 35 -10z m-540 -440 c36 -6 85 -18 110 -28 59 -22 163 -93 226
-156 43 -43 53 -61 66 -114 20 -79 14 -86 -82 -102 -53 -9 -129 -9 -322 0
-277 12 -589 11 -599 -3 -16 -23 -14 35 3 87 46 141 195 259 387 306 89 22
123 23 211 10z m1150 -515 c0 -16 -9 -19 -34 -9 -20 8 -11 24 15 24 10 0 19
-7 19 -15z m2 -67 c-7 -7 -12 -8 -12 -2 0 14 12 26 19 19 2 -3 -1 -11 -7 -17z
m-2220 -750 c-9 -9 -12 -7 -12 12 0 19 3 21 12 12 9 -9 9 -15 0 -24z"/>
<path d="M4015 3705 c-161 -23 -295 -66 -434 -142 -47 -26 -97 -58 -111 -72
-14 -14 -37 -32 -53 -40 -52 -27 -174 -158 -239 -256 -15 -22 -45 -65 -67 -95
-39 -52 -131 -229 -131 -250 0 -6 -8 -27 -19 -48 -38 -76 -56 -205 -56 -397 0
-186 8 -240 57 -409 35 -123 107 -258 197 -371 50 -63 190 -201 219 -216 14
-8 51 -38 82 -67 30 -29 65 -55 78 -58 12 -4 22 -10 22 -14 0 -4 15 -15 33
-23 184 -86 168 -80 362 -122 250 -54 562 -16 785 95 77 39 248 152 270 179 3
4 17 14 33 24 15 10 27 24 27 33 0 8 7 17 15 20 8 4 15 14 15 23 0 10 11 27
25 39 14 12 25 27 25 34 0 26 62 107 91 117 16 5 29 15 29 22 0 8 -3 9 -13 0
-16 -13 -27 -5 -27 19 0 9 12 22 27 29 15 7 22 15 17 19 -17 11 -25 61 -14 82
6 11 19 20 29 20 10 0 21 8 25 18 3 9 14 31 25 47 24 37 26 55 6 55 -13 0 -13
4 2 28 10 15 25 35 35 46 21 23 35 116 18 126 -8 5 -5 9 8 12 16 5 19 15 20
61 0 30 6 65 12 77 10 18 8 24 -7 36 -17 13 -17 14 5 20 24 7 27 20 12 44 -5
9 -5 19 1 26 13 16 8 46 -11 61 -8 6 -12 15 -8 19 4 4 15 1 23 -6 14 -12 15
-4 10 71 -4 46 -9 91 -12 99 -2 8 -6 40 -8 71 -1 31 -7 64 -13 75 -5 10 -18
39 -28 64 -46 117 -236 382 -334 466 -14 12 -36 31 -49 43 -13 12 -27 21 -30
21 -3 0 -24 16 -46 35 -22 19 -43 35 -47 36 -5 1 -12 2 -18 3 -5 0 -19 9 -30
19 -18 15 -69 40 -77 38 -2 -1 -12 8 -23 19 -11 11 -27 20 -36 20 -9 0 -30 6
-47 14 -52 23 -167 54 -244 65 -92 14 -293 12 -408 -4z m372 -658 c3 -4 15 -7
25 -7 10 0 18 -4 18 -10 0 -5 7 -10 16 -10 24 0 128 -78 208 -154 108 -105
159 -224 173 -402 4 -57 0 -94 -22 -180 -31 -124 -57 -181 -123 -269 -82 -107
-197 -175 -342 -200 -238 -42 -387 -1 -527 144 -168 176 -245 405 -200 599 9
37 19 87 22 112 4 25 10 50 14 55 4 6 14 30 21 55 8 25 17 47 20 50 3 3 18 22
33 42 50 68 196 134 382 174 60 13 269 13 282 1z m-782 -397 c3 -5 1 -10 -4
-10 -6 0 -11 5 -11 10 0 6 2 10 4 10 3 0 8 -4 11 -10z"/>
<path d="M10495 3686 c-60 -13 -151 -52 -233 -101 -54 -32 -74 -31 -125 3 -23
15 -72 42 -109 60 -58 28 -78 32 -147 32 -86 0 -152 -18 -188 -52 -13 -12 -23
-18 -23 -14 0 5 -6 3 -14 -4 -8 -6 -12 -18 -9 -26 3 -9 0 -12 -8 -9 -9 3 -22
-10 -36 -37 l-22 -43 -1 -820 c-1 -451 -4 -881 -8 -955 -3 -74 -6 -184 -6
-245 -1 -102 1 -113 25 -150 14 -22 41 -53 60 -69 34 -28 97 -61 112 -58 4 1
7 -2 7 -7 0 -17 63 -31 136 -31 63 0 84 5 147 35 78 36 132 86 143 133 4 15
10 29 15 32 17 11 31 208 24 340 -4 74 -8 239 -10 365 -2 127 -6 248 -9 270
-21 157 -9 398 24 469 26 54 93 127 140 151 86 44 233 38 319 -15 26 -17 53
-30 60 -30 6 0 11 -4 11 -10 0 -5 9 -19 19 -29 31 -31 49 -72 67 -152 14 -64
17 -159 19 -694 3 -616 3 -620 25 -669 29 -64 108 -149 132 -143 10 3 28 -3
40 -13 31 -24 79 -33 169 -31 66 1 84 5 150 39 41 21 79 49 85 61 7 13 17 28
23 34 6 6 11 19 11 30 0 14 -5 17 -20 12 -24 -8 -24 -6 -5 31 8 16 15 44 15
62 0 22 4 31 11 26 7 -4 9 -22 6 -45 -3 -22 -2 -37 3 -34 4 3 10 24 12 47 3
32 -1 48 -14 62 -11 13 -14 22 -8 26 6 4 12 18 14 31 1 13 6 31 9 39 4 8 8 24
10 35 1 11 5 25 8 30 3 6 4 51 3 100 -1 50 -3 139 -3 198 -1 94 -3 108 -17
105 -10 -2 -19 3 -21 10 -3 7 4 12 16 12 21 0 23 14 12 80 -1 3 -6 -2 -11 -10
-10 -16 -11 -14 -12 93 -1 40 3 53 16 55 13 3 14 7 5 23 -6 11 -12 43 -14 71
-2 28 -7 63 -10 79 -6 24 -4 27 15 22 19 -5 20 -3 14 23 -4 16 -7 33 -6 39 1
5 3 91 5 191 1 132 -1 185 -10 196 -7 8 -10 17 -7 20 6 6 -17 84 -49 168 -34
89 -153 257 -245 347 -69 67 -101 91 -185 132 -147 72 -225 91 -372 90 -66 -1
-147 -7 -180 -13z m-67 -109 c3 -12 -2 -16 -17 -14 -26 4 -35 13 -26 27 10 16
39 8 43 -13z m1099 -1619 c-3 -7 -5 -2 -5 12 0 14 2 19 5 13 2 -7 2 -19 0 -25z
m-1752 -728 c3 -5 1 -10 -4 -10 -6 0 -11 5 -11 10 0 6 2 10 4 10 3 0 8 -4 11
-10z"/>
<path d="M18453 3689 c-78 -13 -154 -45 -198 -84 -22 -19 -45 -35 -52 -35 -6
0 -13 -4 -15 -10 -4 -14 -87 -27 -123 -20 -16 4 -41 3 -53 -2 -27 -9 -43 -3
-36 15 7 18 -78 59 -108 52 -31 -8 -58 16 -51 44 4 16 -2 21 -34 28 -21 4 -69
8 -108 8 -58 0 -80 -6 -129 -30 -88 -45 -160 -115 -188 -183 l-23 -57 -3 -970
c-2 -533 0 -989 3 -1013 4 -27 10 -40 17 -36 8 5 9 1 5 -10 -15 -39 86 -166
132 -166 11 0 21 -5 23 -10 6 -20 83 -39 155 -40 57 0 85 5 130 26 55 25 123
82 123 104 0 6 9 19 21 31 12 12 19 29 16 40 -3 11 0 19 8 19 17 0 29 294 21
517 -4 92 -8 305 -8 473 l-2 305 28 65 c15 36 33 70 39 75 7 6 25 27 40 48 40
53 98 87 147 87 22 0 83 -14 136 -31 53 -17 109 -33 123 -36 89 -17 128 -20
149 -12 13 5 40 9 60 9 24 0 53 11 82 30 25 17 57 38 73 48 15 9 29 24 32 33
3 9 16 28 28 41 127 138 111 380 -35 520 -28 26 -55 48 -61 48 -7 0 -31 13
-54 29 -45 31 -161 62 -222 60 -20 -1 -59 -5 -88 -10z"/>
<path d="M8847 3629 c-61 -14 -97 -37 -91 -57 5 -13 4 -14 -4 -3 -12 17 -47 7
-36 -10 4 -7 3 -9 -3 -6 -17 11 -48 -36 -66 -98 -25 -93 -27 -208 -19 -1127 4
-471 4 -854 0 -851 -5 2 -8 -8 -8 -22 0 -16 4 -24 10 -20 7 4 9 -2 5 -18 -8
-31 25 -111 62 -149 32 -33 93 -67 111 -61 6 3 12 1 12 -5 0 -17 51 -32 113
-32 50 0 73 6 116 30 30 17 58 30 64 30 25 0 112 88 133 135 27 62 41 258 25
351 -10 55 -15 575 -13 1339 1 408 0 419 -61 469 -51 42 -117 71 -216 97 -82
21 -80 21 -134 8z m-7 -43 c0 -11 -19 -15 -25 -6 -3 5 1 10 9 10 9 0 16 -2 16
-4z m-70 -2279 c0 -10 -5 -17 -11 -15 -6 2 -10 7 -10 11 1 4 1 17 1 30 0 18 2
19 10 7 5 -8 10 -23 10 -33z m74 -23 c22 -9 20 -34 -3 -34 -10 0 -21 9 -24 20
-5 21 1 24 27 14z m163 -60 c-3 -3 -12 -4 -19 -1 -8 3 -5 6 6 6 11 1 17 -2 13
-5z"/>
<path d="M14680 2590 c0 -5 5 -10 10 -10 6 0 10 5 10 10 0 6 -4 10 -10 10 -5
0 -10 -4 -10 -10z"/>
<path d="M5216 1645 c-3 -8 -1 -15 4 -15 6 0 10 7 10 15 0 8 -2 15 -4 15 -2 0
-6 -7 -10 -15z"/>
<path d="M5961 935 c0 -11 4 -29 9 -40 l9 -20 0 20 c0 11 -4 29 -9 40 l-9 20
0 -20z"/>
</g>
</svg>
